<svg width="113" height="112" viewBox="0 0 113 112" fill="none" xmlns="http://www.w3.org/2000/svg">
  <path
    d="M2.91996 110.28C2.35996 109.8 1.67996 109 1.43996 108.52C0.759963 107.16 0.839963 3.72 1.55996 2.48C1.83996 1.96 2.59996 1.2 3.23996 0.76C4.35996 0.04 5.67996 0 56.52 0C102.32 0 108.8 0.08 109.8 0.6C112.36 1.92 112.2 -1.56 112.2 55.6C112.2 112.76 112.36 109.28 109.8 110.6C108.8 111.12 102.32 111.2 56.32 111.2H3.99996L2.91996 110.28ZM67.84 101.24L68.8 100.48L68.88 80.72C68.96 69.88 69 60.88 69 60.72C69 60.52 69.8 60.4 70.8 60.4C72.32 60.4 72.6 60.52 72.8 61.32C73.24 63.04 73.6 77.84 73.28 81.8C73.12 84 72.64 87.8 72.2 90.28C71.16 96.08 71.16 98.8 72.16 100.04C72.84 100.92 73.24 101 76.28 101C79.2 101 79.92 100.84 82.32 99.72C83.8 99 85 98.28 85 98.08C85 97.88 83.88 97.64 82.48 97.52C79.32 97.32 76.24 95.88 75.44 94.2C74.96 93.2 74.92 92.12 75.32 87.2C75.8 81.2 76 79.68 77.36 69.08C78.44 60.96 78.44 57.36 77.44 56C76.72 55.08 76.44 55.04 72.92 55C70.88 55 69.16 54.88 69.12 54.72C69.04 54.52 69 49.64 69 43.8C69 35.64 69.12 33.16 69.52 33.04C69.76 32.96 72.28 32.72 75.08 32.48C83.4 31.8 83.44 31.72 83.84 21.4C84.04 15.64 84.24 13.76 84.92 11.92C85.72 9.72 85.72 9.64 85 9C83.68 7.8 79.96 7.16 76.2 7.44C72 7.76 70.88 8.24 73.4 8.64C74.76 8.84 75.56 9.28 76.68 10.44C78.68 12.56 79.2 14.48 79.2 20.2C79.2 25.48 78.6 27.28 76.52 28.28C75.4 28.84 69 29.36 69 28.88C69 28.72 68.96 25.28 68.88 21.28C68.8 14.08 68.76 13.92 67.84 13.16C66.96 12.44 66.04 12.4 49.44 12.4C39.84 12.4 31.8 12.56 31.56 12.72C30.24 13.6 30.2 14.44 30.2 56.56C30.2 84.4 30.32 98.4 30.6 98.4C31.44 98.4 39.68 95.84 41.08 95.16C41.88 94.76 42.92 93.92 43.4 93.32C44.24 92.28 44.28 91.92 44.04 87.4C43.32 73.72 43.32 65.84 43.96 62.08C44.72 57.76 45.44 56.08 46.72 55.84C47.2 55.72 49.16 55.56 51.12 55.48C55.52 55.32 56.48 54.68 57.56 51.36C58.68 47.88 58.96 38.28 58 36.24C56.8 33.72 54.44 33.92 53.08 36.72C52.28 38.32 51.92 39.64 50.6 45.68C49.84 49.08 49.56 49.8 48.08 51.4C46.6 53.12 40.28 57.6 39.4 57.6C38.2 57.6 40.36 52.36 41.88 51.56C43.92 50.52 47.76 47.12 48.32 45.92C48.64 45.2 49.28 42.28 49.76 39.48C50.72 33.84 51.52 31.36 52.64 30.8C53.04 30.56 54.56 30.4 56.08 30.36C61.84 30.32 63.04 28.88 60.28 25.36C57.88 22.28 56.2 19.72 56.2 19.08C56.2 18.8 57.08 18.04 58.16 17.48C61.28 15.76 64.6 16.16 65.8 18.36C66.04 18.88 66.04 20.64 65.76 23.64C65.36 27.8 65.4 28.2 66.04 28.68C66.44 28.96 67.16 29.2 67.68 29.2C68.52 29.2 68.6 29.4 68.6 31V32.8H67.04C66.2 32.8 65.32 33.04 65.08 33.32C63.84 34.8 60.6 46.48 60.52 49.8C60.4 54.16 61.8 55.6 66.12 55.6H68.64L68.52 57.92L68.4 60.2L66.2 60.16C65 60.12 61.48 59.88 58.4 59.6C53.44 59.16 52.64 59.16 51.28 59.72C48.72 60.8 48.56 61.64 48.16 75.8C47.84 88.92 47.48 92.28 46.24 95.64C44.72 99.56 44.68 99.6 36.92 99.6C33.24 99.6 30.2 99.72 30.2 99.88C30.2 100.04 30.6 100.56 31.08 101.08L31.92 102H49.44C66.04 102 66.96 101.96 67.84 101.24Z"
    fill="white" />
</svg>