<svg width="246" height="156" viewBox="0 0 246 156" fill="none" xmlns="http://www.w3.org/2000/svg">
<path d="M132.46 154.014C131.607 153.239 130.249 151.223 129.279 149.362C126.021 143.005 118.923 134.516 115.316 132.694C112.523 131.26 108.916 130.717 105.774 131.298C100.965 132.19 96.1939 134.206 90.7637 137.694C86.7686 140.253 84.0535 140.447 81.959 138.315C81.0669 137.423 80.8341 136.88 80.8341 135.524C80.8341 133.159 82.1917 131.919 85.5274 131.104C96.7757 128.43 98.5599 127.81 101.585 125.639C104.688 123.352 105.309 120.212 103.02 118.041C102.012 117.072 100.228 116.645 92.5479 115.599C90.6473 115.328 88.5916 113.351 88.5916 111.722C88.5916 108.776 90.4534 107.187 93.9054 107.187C95.6896 107.187 96.6981 107.536 100.887 109.59C107.248 112.73 112.329 113.777 116.906 112.885C118.264 112.575 119.621 110.831 119.621 109.319C119.621 107.652 120.863 104.59 121.871 103.815C122.608 103.194 123.422 103.039 125.672 103.039C128.387 103.039 128.581 103.001 129.861 101.683C131.257 100.287 132.188 97.5736 131.607 96.4494C131.451 96.1005 130.404 95.5966 129.241 95.3253C125.556 94.3562 120.281 92.4955 117.1 91.0225C115.394 90.2084 111.786 89.0067 109.071 88.3477C104.029 87.0685 100.654 85.8668 98.0169 84.3938C93.4012 81.7966 91.9661 81.2539 88.0873 80.7112C74.1627 78.8118 71.5252 77.9202 62.8757 72.2219C57.6782 68.8107 55.351 68.1517 54.3425 69.741C53.2564 71.5629 52.7522 74.9354 53.2564 77.1837C54.071 80.905 52.6359 82.882 49.1062 82.882C47.5547 82.882 47.0505 82.6882 46.1584 81.7966C44.6457 80.1685 44.4905 78.5017 45.7317 75.7494C46.2748 74.509 46.8953 72.3382 47.0893 70.9039C47.2832 69.5084 47.5547 67.7253 47.6711 66.95L47.9426 65.5933L43.7536 63.1511C41.4264 61.8331 38.207 59.7786 36.6167 58.577C33.7465 56.4449 33.7077 56.4449 31.5744 56.6388C29.6738 56.8713 26.6096 57.6079 24.3988 58.4607C23.9721 58.6157 22.9249 58.9646 22.0715 59.1972C17.9989 60.4764 14.8183 61.8719 11.9869 63.6938C7.6815 66.4848 7.44878 66.6011 5.23791 66.6011C3.49249 66.6011 3.22098 66.4848 2.13494 65.1668C0.505873 63.1899 0.428299 60.6315 2.01857 59.1584C3.41491 57.7629 4.38459 57.4528 9.77601 56.5225C16.8741 55.3208 23.1188 53.2663 26.3381 51.0955C28.1999 49.855 28.2775 48.6534 26.6872 46.5601C25.1745 44.5831 23.5067 44.0017 20.171 44.3118C17.4947 44.5831 17.3007 44.5444 16.1371 43.5365C14.508 42.1798 13.7323 40.6292 13.7323 38.7685C13.7323 35.5899 15.7492 35.0084 21.3734 36.4815C24.1273 37.218 25.0969 37.3343 25.5236 36.9854C25.8339 36.7528 26.726 35.1635 27.5018 33.4579C28.7817 30.6668 29.5187 29.7753 34.755 24.5034L40.5342 18.6888L40.0688 16.0528C39.5646 13.1843 39.7973 9.92808 40.6506 7.87359C41.3876 6.09044 43.8312 3.49325 45.6154 2.60168C47.0893 1.86516 52.7134 0.469653 55.8552 0.0432487C58.6091 -0.305628 62.992 1.59381 67.2586 4.92752C70.478 7.40842 71.6416 7.95111 78.5069 10.1607C85.5274 12.409 89.5225 12.8741 95.8836 12.3315C100.732 11.8663 106.666 10.8972 112.64 9.61797C119.117 8.1837 120.785 7.98988 129.706 7.67977C134.516 7.48595 139.907 7.17583 141.73 6.94325C143.553 6.74943 147.121 6.43932 149.72 6.28426C154.413 6.01291 154.685 6.05168 161.124 7.52471C163.49 8.10617 168.842 10.3932 179.354 15.355C191.649 21.1309 192.735 21.4022 202.432 21.1697C211.586 20.9371 213.176 21.2084 215.426 23.3792C216.667 24.5809 216.977 25.2399 217.326 27.1781C217.714 29.3101 217.986 29.7753 219.925 31.7522C221.515 33.3803 222.291 34.5045 222.834 36.1713C223.571 38.4197 223.493 39.35 222.369 43.1876C221.593 45.8236 222.291 46.9865 224.075 46.1337C224.541 45.9399 226.441 44.5444 228.303 43.0326C234.315 38.1483 235.634 38.2258 240.948 43.7691C243.042 45.9399 244.904 48.0331 245.175 48.4983C245.835 49.6612 245.796 52.9949 245.137 54.8944C244.826 55.7472 243.74 57.8792 242.732 59.6624C238.543 67.0663 238.039 68.5005 232.88 87.9213C231.367 93.5809 226.945 102.225 220.856 111.374C217.481 116.413 217.055 117.576 217.714 120.018C218.839 124.282 223.92 129.593 229.622 132.539C233.578 134.554 234.431 135.562 234.431 138.237C234.431 139.904 234.276 140.33 233.19 141.377C232.143 142.424 231.678 142.579 229.971 142.579C228.225 142.579 227.838 142.424 226.829 141.338C226.17 140.64 225.161 139.206 224.541 138.16C221.554 132.888 216.434 129.709 210.771 129.631C209.375 129.593 207.629 129.825 206.892 130.135C204.992 130.911 201.501 133.353 200.066 134.865C198.204 136.842 195.838 140.718 195.101 143.005C193.86 146.688 192.425 148.006 189.477 148.006C188.275 148.006 187.576 147.734 186.529 146.804C185.327 145.757 185.172 145.37 185.172 143.742C185.172 141.416 185.947 140.408 189.399 138.16C192.153 136.376 193.201 135.252 195.218 131.802C197.002 128.779 196.847 127.461 194.558 125.174C193.123 123.739 192.231 123.197 190.679 122.809C188.119 122.228 187.111 122.46 184.202 124.476C182.922 125.329 181.293 126.453 180.556 126.957C178.578 128.313 175.591 128.197 174.234 126.802C172.643 125.135 172.256 123.778 172.954 122.421C173.691 120.987 175.63 119.979 179.586 119.01C185.598 117.537 189.904 115.289 191.416 112.885C192.386 111.257 192.153 110.482 190.369 109.319C188.74 108.272 186.296 108.079 184.435 108.854C181.681 109.978 178.578 108.117 178.578 105.326C178.578 103.388 179.935 102.264 182.263 102.264C184.745 102.264 184.861 101.838 183.775 97.6123C183.271 95.5966 182.844 93.5421 182.844 93.0382C182.844 91.8365 182.185 90.6348 181.487 90.6348C181.177 90.6348 180.362 90.9449 179.664 91.3326C178.461 91.9916 174.738 93.232 171.402 94.0848C168.493 94.8213 165.196 95.2865 159.339 95.868C156.12 96.1781 153.211 96.527 152.862 96.6432C152.552 96.7983 151.621 98.4264 150.845 100.248C146.462 110.56 143.126 115.599 135.446 123.429C131.956 126.995 129.241 130.097 129.124 130.678C128.581 132.81 129.434 137.423 130.947 140.64C132.188 143.276 133.042 144.245 136.61 146.998C139.442 149.246 139.636 149.595 139.442 152.076C139.403 152.502 138.782 153.433 138.045 154.13C136.183 155.875 134.477 155.836 132.46 154.014ZM135.679 151.649C136.416 150.913 136.416 150.952 135.718 149.556C134.593 147.385 131.956 146.416 131.451 148.006C131.025 149.362 133.158 152.27 134.632 152.27C134.865 152.27 135.369 151.998 135.679 151.649ZM191.921 144.168C192.89 143.121 192.58 141.726 191.222 141.067C190.136 140.563 190.02 140.602 189.167 141.571C188.197 142.734 188.042 143.742 188.74 144.439C189.438 145.137 191.184 144.982 191.921 144.168ZM230.475 139.245C232.104 138.121 231.096 135.601 229.001 135.601C227.721 135.601 227.062 136.26 227.062 137.578C227.062 138.625 228.225 139.865 229.195 139.865C229.428 139.865 230.01 139.594 230.475 139.245ZM87.8158 136.299C90.3758 134.554 90.4146 132.888 87.9322 132.888C86.3419 132.888 84.9844 133.624 84.325 134.826C84.0147 135.407 84.0923 135.756 84.7129 136.376C85.7213 137.384 86.2256 137.345 87.8158 136.299ZM125.75 131.647C125.982 130.949 126.254 129.438 126.37 128.275C126.758 124.631 128.155 122.344 132.188 119.01C139.054 113.273 140.179 111.916 143.204 105.675C147.936 95.9843 152.009 86.8359 153.172 83.3084C154.995 77.7652 151.388 72.5708 144.833 71.2916C138.472 70.0511 122.957 70.1286 120.475 71.4079C118.846 72.2607 112.64 77.9202 112.911 78.3466C113.183 78.773 117.333 78.3854 119.776 77.6489C120.746 77.3388 122.724 76.4472 124.121 75.6719C126.952 74.0826 126.525 74.1213 132.033 75.5168C136.222 76.5635 137.657 76.6798 139.985 76.0595C143.747 75.0904 144.174 75.0517 145.686 75.6719C147.82 76.5635 148.518 77.8814 148.44 80.7112C148.401 82.0292 148.091 83.7736 147.742 84.6264C146.734 86.991 145.609 89.5494 144.949 90.8286C144.639 91.4876 142.738 95.5579 140.799 99.9382C135.64 111.49 134.748 113.079 132.266 115.366C128.271 119.01 126.836 119.243 122.724 117.149C120.087 115.754 119.893 115.715 117.061 115.987C112.95 116.297 112.252 116.723 111.515 119.32C111.088 120.871 110.506 121.879 109.226 123.08C106.55 125.678 106.938 125.949 113.105 125.639C119.854 125.329 121.173 125.949 122.647 130.019C123.539 132.5 123.81 132.888 124.664 132.888C125.129 132.888 125.517 132.461 125.75 131.647ZM204.449 126.685C207.242 124.786 208.211 124.398 210.926 124.127C212.361 123.972 213.603 123.739 213.719 123.545C213.797 123.39 213.331 122.228 212.633 120.987C211.935 119.785 211.004 117.653 210.577 116.219C210.073 114.746 209.491 113.661 209.142 113.583C208.25 113.428 204.294 117.227 203.828 118.661C203.634 119.359 203.324 120.793 203.169 121.84C203.014 122.925 202.587 124.437 202.199 125.212C200.764 128.081 201.579 128.624 204.449 126.685ZM179.858 124.708C180.401 124.476 181.021 123.856 181.254 123.313C181.642 122.46 181.564 122.344 180.323 121.801C179.121 121.336 178.811 121.336 177.608 121.801C176.6 122.228 176.251 122.615 176.251 123.274C176.251 125.019 177.841 125.639 179.858 124.708ZM198.127 121.413C198.514 120.444 198.359 117.304 197.855 115.831C197.273 114.087 196.342 113.971 193.976 115.289C191.882 116.452 190.873 117.731 191.067 118.971C191.145 119.63 191.765 119.979 193.821 120.716C195.295 121.181 196.575 121.685 196.73 121.801C197.157 122.228 197.894 122.034 198.127 121.413ZM102.167 114.087C102.865 113.234 101.43 111.761 98.4823 110.366C95.806 109.087 94.9527 108.97 93.9442 109.901C92.3151 111.374 93.7891 113.195 97.3187 114.048C100.383 114.785 101.585 114.785 102.167 114.087ZM126.138 109.862C127.65 107.575 127.767 106.295 126.409 105.675C124.625 104.861 123.384 105.637 122.802 107.962C121.793 112.149 123.81 113.312 126.138 109.862ZM206.582 105.443C212.168 102.923 219.421 95.7904 223.028 89.2781C223.261 88.8517 223.804 87.8826 224.23 87.1461C224.657 86.4095 225.937 83.6185 227.062 80.9438C229.311 75.6719 231.406 71.1365 237.496 58.3056C240.249 52.491 240.443 51.2118 238.737 48.8859C236.293 45.5522 234.548 45.2421 231.018 47.6067C228.148 49.5449 225.239 52.7624 220.235 59.6624C209.84 73.9275 204.876 81.6028 204.526 83.8511C204.216 85.9056 205.69 87.1461 207.785 86.6034C208.289 86.4871 209.685 85.4017 210.926 84.1612C213.292 81.7579 215.581 78.4241 220.429 70.2449C224.929 62.6859 230.087 55.0494 230.979 54.5455C231.949 54.0416 232.88 54.3517 232.88 55.127C232.88 55.7084 232.065 57.2977 230.475 59.9337C230.048 60.6315 228.264 64.3916 226.519 68.268C222.252 77.7652 217.365 87.2236 215.232 90.0534C211.586 94.8989 205.768 99.9382 203.828 99.9382C203.402 99.9382 202.936 100.132 202.82 100.326C202.51 100.869 198.786 100.83 197.157 100.248C195.799 99.7831 193.356 98.1163 191.843 96.5657C191.339 96.0618 190.602 95.6741 190.214 95.6741C188.973 95.6741 189.244 97.7674 190.835 100.365C192.619 103.311 194.209 104.861 196.614 106.024C199.329 107.342 202.936 107.11 206.582 105.443ZM133.313 92.2629C134.322 91.1388 134.554 89.3168 133.74 88.6579C132.887 87.9601 127.65 87.9213 125.944 88.6579C123.5 89.6657 124.858 91.1 129.279 92.2241C132.576 93.077 132.576 93.077 133.313 92.2629ZM164.808 91.3326C169.308 90.0146 171.906 88.5028 175.165 85.1691C178.229 82.068 178.927 80.7888 178.229 79.5095C178.035 79.0831 176.406 77.9202 174.622 76.9124C172.837 75.9045 170.277 74.3927 168.881 73.5011C165.701 71.5241 164.498 71.0202 160.775 70.0899C157.284 69.1983 154.918 69.082 154.918 69.8185C154.918 70.0899 155.383 70.9427 155.926 71.6792C158.137 74.6253 158.564 75.9045 158.525 79.3932C158.486 82.5719 157.788 85.3629 155.655 90.5573C155.228 91.6039 155.228 91.8753 155.616 92.1466C156.43 92.6505 161.899 92.1854 164.808 91.3326ZM196.381 86.177C198.282 85.2079 200.182 82.5719 201.656 78.8506C204.1 72.7258 209.569 62.9961 214.611 55.7472C216.783 52.6073 218.141 50.3202 218.141 49.7C218.141 49.6225 217.637 49.5449 217.055 49.5449C214.262 49.5449 205.884 58.6545 200.609 67.3764C195.838 75.2843 193.86 79.6646 193.433 83.1921C193.239 84.8202 193.356 85.3629 193.899 85.9831C194.752 86.9135 194.985 86.9135 196.381 86.177ZM50.8904 80.091C51.511 79.4708 51.511 76.9899 50.8904 76.3697C50.2698 75.7494 48.059 75.7882 47.5547 76.4084C46.1196 78.2303 47.0117 80.5562 49.145 80.5562C49.8432 80.5562 50.6189 80.3623 50.8904 80.091ZM94.0218 73.5399C97.9393 72.4545 100.887 70.8652 103.137 68.5781C104.727 66.9112 105.309 66.5624 106.899 66.3685C107.908 66.2135 109.032 65.9034 109.42 65.632C110.002 65.2056 109.847 65.0118 108.14 63.7713C105.929 62.1433 102.71 61.2517 101.508 61.8719C101.081 62.1045 99.995 62.9185 99.1029 63.6938C97.2411 65.2444 96.0775 65.3607 89.6776 64.6629C84.5577 64.159 82.5408 62.841 85.3722 61.9494C90.9576 60.1275 94.1769 57.0264 96.349 51.2893C96.892 49.855 98.2496 50.0489 103.641 52.2584C112.174 55.7472 116.906 58.4219 122.608 63.0348C125.245 65.1281 127.262 65.7095 130.133 65.2444C132.537 64.818 132.499 64.7017 126.176 57.6854C124.586 55.8635 122.259 52.9562 121.056 51.2506C119.854 49.5062 118.613 47.8781 118.264 47.6067C116.751 46.3663 113.26 46.8315 109.614 48.8472C107.403 50.0489 106.162 49.8163 100.422 46.9477C96.9308 45.2034 96.6593 44.932 95.2242 41.9472C93.8278 39.0399 90.9964 35.8612 88.8243 34.7371C81.4935 30.977 73.3094 31.9461 67.4913 37.218C65.1253 39.3112 63.6902 42.0635 62.7593 46.0562C62.1775 48.6921 62.1775 49.0798 62.7981 51.677C63.6902 55.5534 65.2417 58.1118 67.6465 59.6624C68.6937 60.3601 69.5859 61.0966 69.5859 61.2904C69.5859 61.8719 66.2889 61.2904 64.2332 60.3989C63.0308 59.8562 61.2078 58.3056 58.5703 55.5534C56.3982 53.3438 54.0322 51.0955 53.2952 50.5916C51.1231 49.1573 47.1669 47.3741 43.5984 46.25C35.9961 43.8079 34.9101 43.3427 33.3198 41.7921C31.7683 40.2416 31.7683 40.2028 31.7683 37.3343C31.7683 33.4191 30.8762 33.0702 29.4411 36.4815C27.8508 40.3191 29.4023 45.591 33.1259 48.8472C35.4919 50.9404 40.6894 53.6927 47.4772 56.5225C50.1535 57.6466 53.1013 58.9258 54.071 59.3522C56.9024 60.5927 71.4864 66.2135 74.4342 67.1438C78.6621 68.5006 80.7566 68.927 84.2862 69.1208C86.0704 69.2371 87.6219 69.3921 87.7383 69.5084C88.0873 69.8573 86.5359 70.7876 85.2947 71.0202C84.6741 71.1365 81.6487 71.3303 78.6233 71.4854C71.6416 71.7955 71.2925 72.4545 77.3433 73.7337C78.9336 74.0438 80.8729 74.4315 81.6099 74.509C84.3638 74.8191 91.3067 74.3152 94.0218 73.5399ZM65.7071 67.105C65.7071 66.8337 62.6429 65.5545 46.3135 59.1197C43.6372 58.073 41.2324 57.0264 40.9609 56.7938C40.3015 56.2899 39.8361 56.7938 40.3403 57.5691C40.9997 58.6157 47.5935 62.4921 50.968 63.8489C56.6697 66.0972 65.7071 68.0741 65.7071 67.105ZM8.65118 63.7713C9.15542 63.5388 9.93116 62.841 10.3966 62.2208L11.1723 61.1741L10.3578 60.3213C8.65118 58.6545 4.77246 59.8174 4.50095 62.1045C4.42338 62.6859 4.57853 63.4225 4.85004 63.7326C5.39306 64.3916 7.37121 64.4303 8.65118 63.7713ZM187.499 59.0034C188.469 58.8871 189.399 58.6157 189.632 58.4219C189.826 58.2281 190.292 58.073 190.679 58.073C192.037 58.073 195.722 55.9798 197.041 54.4292C198.592 52.6461 200.337 49.3899 201.074 46.9865C201.501 45.591 201.462 45.1646 200.764 43.6528C200.182 42.2961 199.756 41.8309 198.902 41.6758C197.351 41.3657 196.342 42.141 194.868 44.777C193.162 47.8006 188.43 52.4135 184.318 55.0882C181.564 56.8713 180.905 57.4528 180.905 58.2281C180.905 58.732 181.138 59.2747 181.409 59.391C181.875 59.5848 184.008 59.4685 187.499 59.0034ZM171.906 48.7309C173.536 48.3045 175.63 47.6067 176.522 47.2191C178.655 46.2888 181.564 43.5753 182.03 42.0635C182.224 41.3657 182.379 38.1483 182.34 34.8921C182.263 29.8916 182.146 28.8837 181.642 28.5736C181.293 28.4185 178.927 27.9146 176.406 27.4882C173.846 27.1006 169.269 25.9376 166.166 24.9685C158.409 22.4489 156.042 22.1388 151 22.9916C146.423 23.7668 143.863 24.1545 139.985 24.7747C135.796 25.3949 122.802 25.6275 117.372 25.1623C109.42 24.5034 97.9005 26.209 97.9005 28.0309C97.9005 28.8449 98.8702 29 103.951 29C108.334 29 116.13 29.9303 126.603 31.7522C130.831 32.4888 134.438 32.605 137.037 32.1011C139.442 31.6359 139.752 31.6747 141.652 32.4888C144.329 33.6517 146.54 36.1713 149.061 40.9781C151.272 45.2809 153.133 47.3354 155.887 48.6146C157.633 49.4674 158.37 49.5449 163.373 49.5449C167.756 49.5449 169.54 49.3899 171.906 48.7309ZM20.4813 41.7921C22.5758 41.0168 21.4122 39.5438 18.4256 39.1949C16.6026 39.0011 16.4474 39.0399 16.4474 39.7764C16.4474 40.5904 18.1153 42.1798 19.0074 42.1798C19.2789 42.1798 19.9383 42.0247 20.4813 41.7921ZM60.8199 40.009C61.3242 39.8152 61.4405 39.1949 61.4405 37.0629C61.4405 33.264 62.2939 31.9073 66.5992 29.0388C67.6077 28.341 68.3447 27.6432 68.2283 27.4107C67.8404 26.8292 64.4272 27.023 62.7981 27.7983C61.9448 28.1859 60.1606 29.3101 58.8418 30.318C57.523 31.3258 55.9328 32.2949 55.351 32.45C54.7691 32.605 52.2092 32.5663 49.688 32.3725C45.3826 31.9848 45.0723 32.0236 44.0639 32.7601C43.4045 33.264 42.9778 33.9618 42.9003 34.7371C42.7839 35.7837 42.9778 36.0938 44.0639 36.7528C45.6154 37.6831 48.2141 37.7607 49.882 36.9079C51.705 35.9775 53.5667 36.4039 56.6309 38.4584C59.346 40.2803 59.7339 40.4354 60.8199 40.009ZM211.935 39.6601C213.176 39.0011 213.874 37.9932 213.874 36.7916C213.874 35.8225 212.168 33.768 211.043 33.4191C210.577 33.264 209.491 32.8376 208.638 32.45C205.069 30.8219 201.462 30.0079 201.462 30.8607C201.462 31.9848 204.139 37.4893 205.341 38.7298C206.66 40.1253 206.97 40.2416 208.793 40.2416C209.918 40.2416 211.314 39.9702 211.935 39.6601ZM40.7282 30.5893C42.59 29.7365 45.0723 27.2944 45.4214 25.9764C45.6929 24.891 44.8784 23.1854 44.0639 23.1854C43.7924 23.1854 42.9778 23.8056 42.3572 24.5421C41.6979 25.2786 40.5342 26.0927 39.7585 26.3253C37.1986 27.1393 35.841 28.1859 35.841 29.3489C35.841 29.9303 36.0349 30.5893 36.3064 30.8607C36.9658 31.5197 38.9052 31.4034 40.7282 30.5893ZM213.758 27.6432C214.34 26.0539 211.12 24.6197 207.319 24.8135C204.488 24.9298 203.906 25.55 205.69 26.4803C208.677 27.9921 213.331 28.6899 213.758 27.6432ZM102.943 19.6191C104.533 18.8826 106.822 17.9522 107.985 17.6034C110.545 16.7893 112.174 15.5876 111.554 14.9674C111.282 14.6961 109.769 14.6573 106.55 14.9286C102.439 15.2388 101.779 15.3938 100.577 16.3241C98.6375 17.7972 96.6205 18.5337 94.6424 18.5337C92.897 18.5337 91.3067 19.464 91.9661 20.123C92.5867 20.7432 95.3793 21.2084 97.7066 21.0921C99.4132 21.0534 100.81 20.6657 102.943 19.6191ZM136.106 18.9213C140.993 18.4562 145.531 17.332 147.703 16.0916C149.604 15.0062 149.837 14.4247 148.44 14.1146C146.889 13.7657 128.969 14.541 127.573 14.9674C126.952 15.2 125.711 15.5876 124.858 15.8202C124.004 16.0916 122.298 16.7506 121.056 17.2932C118.613 18.3786 118.225 19.3477 120.164 19.6966C121.561 19.9292 130.404 19.5028 136.106 18.9213ZM46.4687 16.7506C46.8178 16.4404 47.0893 15.6652 47.0893 15.0449C47.0893 13.1843 48.2529 8.72639 49.1062 7.36965C49.882 6.1292 49.8432 4.96628 49.0286 4.96628C48.3305 4.96628 45.5378 7.75729 44.9948 8.99774C43.7536 11.905 43.5984 12.4865 43.5984 14.4635C43.5984 16.0528 43.7536 16.6343 44.2966 16.9444C45.2275 17.5258 45.7705 17.4483 46.4687 16.7506Z" fill="white"/>
<path d="M74.4343 60.5152C69.0816 58.8871 65.7072 54.1579 65.7072 48.2657C65.7072 42.1022 70.2065 36.8303 76.4124 35.6674C80.6402 34.9309 85.5662 36.1326 88.708 38.7298C92.5091 41.8696 93.7503 48.3045 91.5394 53.5376C90.8413 55.2432 87.6995 58.6932 86.0704 59.5073C82.8899 61.1741 77.9639 61.6005 74.4343 60.5152ZM84.0923 56.1736C85.7601 55.3208 87.428 53.4601 87.428 52.5685C87.428 52.1421 85.9541 52.1809 85.7213 52.5685C85.2947 53.2663 81.2608 53.8865 78.1191 53.7702C75.4427 53.6539 74.4343 53.4213 72.8052 52.5685C70.4004 51.2893 70.3616 51.2893 70.3616 52.1809C70.3616 53.1112 72.4949 55.6309 73.9688 56.4062C76.8003 57.8404 81.1445 57.7629 84.0923 56.1736ZM87.5443 44.3505C86.3032 41.8309 84.6741 40.668 81.1445 39.5826C78.6621 38.8848 76.6064 39.1949 73.93 40.7067C70.284 42.7612 69.741 45.0871 73.1931 43.8854C76.6839 42.6449 82.6959 43.459 86.2644 45.591C87.8934 46.5989 88.4364 46.0562 87.5443 44.3505Z" fill="white"/>
</svg>
