<svg width="81" height="125" viewBox="0 0 81 125" fill="none" xmlns="http://www.w3.org/2000/svg">
<path d="M0 118.139V11H78.3L81 13.6389V58.3889L75.6 63.6667V125H7.02L0 118.139Z" fill="#6B03EF"/>
<path fill-rule="evenodd" clip-rule="evenodd" d="M3 13H2.5V13.5V115V115.207L2.64645 115.354L9.14645 121.854L9.29289 122H9.5H73H73.5V121.5V61.7071L78.3536 56.8536L78.5 56.7071V56.5V16V15.7929L78.3536 15.6464L75.8536 13.1464L75.7071 13H75.5H3ZM3.5 102V14H75.2929L77.5 16.2071V56.2929L72.6464 61.1464L72.5 61.2929V61.5V102H13V104H4V102H3.5ZM3.5 110V113H7V110H3.5Z" fill="#370C6E"/>
<g filter="url(#filter0_f_712_930)">
<path d="M16.9243 114.168L16.3003 117H14.8763L17.5803 105.8H19.4203L22.0763 117H20.6523L20.0443 114.168H16.9243ZM19.7883 112.968L18.4763 106.856L17.1803 112.968H19.7883ZM23.8209 109H25.2929L27.1649 115.896L28.9889 109H30.4129L28.1089 117H26.1409L23.8209 109ZM35.6615 117C34.7228 117 34.0348 116.803 33.5975 116.408C33.1602 116.003 32.9415 115.347 32.9415 114.44V111.56C32.9415 110.643 33.1388 109.987 33.5335 109.592C33.9282 109.197 34.5842 109 35.5015 109H36.2535C37.0108 109 37.5815 109.213 37.9655 109.64C38.3602 110.056 38.5575 110.669 38.5575 111.48V113.56H34.3015V114.76C34.3015 115.091 34.4028 115.347 34.6055 115.528C34.8082 115.709 35.1068 115.8 35.5015 115.8H38.0455V117H35.6615ZM37.2295 111.16C37.2295 110.883 37.1388 110.653 36.9575 110.472C36.7762 110.291 36.5468 110.2 36.2695 110.2H35.3415C34.9575 110.2 34.6855 110.291 34.5255 110.472C34.3762 110.643 34.3015 110.899 34.3015 111.24V112.36H37.2295V111.16ZM42.8461 115.8V110.2H41.6781V109H44.1261V109.432C44.4781 109.144 44.9048 109 45.4061 109H47.0541V110.28H45.2461C44.9048 110.28 44.6488 110.392 44.4781 110.616C44.3075 110.829 44.2168 111.048 44.2061 111.272V115.8H45.9501V117H41.6781V115.8H42.8461ZM53.6308 117C53.0868 117 52.6708 116.824 52.3828 116.472C52.0948 116.12 51.9508 115.656 51.9508 115.08V110.2H50.4308V109H51.9508V107.08H53.3108V109H55.6468V110.2H53.3108V115.16C53.3108 115.395 53.3694 115.56 53.4868 115.656C53.6041 115.752 53.7854 115.8 54.0308 115.8H55.6468V117H53.6308ZM64.6554 114.44C64.6554 115.336 64.4314 115.987 63.9834 116.392C63.546 116.797 62.8634 117 61.9354 117H61.4074C60.4794 117 59.7914 116.797 59.3434 116.392C58.906 115.987 58.6874 115.336 58.6874 114.44V111.56C58.6874 110.664 58.906 110.013 59.3434 109.608C59.7914 109.203 60.4794 109 61.4074 109H61.9354C62.8634 109 63.546 109.203 63.9834 109.608C64.4314 110.013 64.6554 110.664 64.6554 111.56V114.44ZM63.2954 111.24C63.2954 110.909 63.194 110.653 62.9914 110.472C62.7887 110.291 62.49 110.2 62.0954 110.2H61.2474C60.8527 110.2 60.554 110.291 60.3514 110.472C60.1487 110.653 60.0474 110.909 60.0474 111.24V114.76C60.0474 115.091 60.1487 115.347 60.3514 115.528C60.554 115.709 60.8527 115.8 61.2474 115.8H62.0954C62.49 115.8 62.7887 115.709 62.9914 115.528C63.194 115.347 63.2954 115.091 63.2954 114.76V111.24Z" fill="white"/>
</g>
<path d="M16.9243 114.168L16.3003 117H14.8763L17.5803 105.8H19.4203L22.0763 117H20.6523L20.0443 114.168H16.9243ZM19.7883 112.968L18.4763 106.856L17.1803 112.968H19.7883ZM23.8209 109H25.2929L27.1649 115.896L28.9889 109H30.4129L28.1089 117H26.1409L23.8209 109ZM35.6615 117C34.7228 117 34.0348 116.803 33.5975 116.408C33.1602 116.003 32.9415 115.347 32.9415 114.44V111.56C32.9415 110.643 33.1388 109.987 33.5335 109.592C33.9282 109.197 34.5842 109 35.5015 109H36.2535C37.0108 109 37.5815 109.213 37.9655 109.64C38.3602 110.056 38.5575 110.669 38.5575 111.48V113.56H34.3015V114.76C34.3015 115.091 34.4028 115.347 34.6055 115.528C34.8082 115.709 35.1068 115.8 35.5015 115.8H38.0455V117H35.6615ZM37.2295 111.16C37.2295 110.883 37.1388 110.653 36.9575 110.472C36.7762 110.291 36.5468 110.2 36.2695 110.2H35.3415C34.9575 110.2 34.6855 110.291 34.5255 110.472C34.3762 110.643 34.3015 110.899 34.3015 111.24V112.36H37.2295V111.16ZM42.8461 115.8V110.2H41.6781V109H44.1261V109.432C44.4781 109.144 44.9048 109 45.4061 109H47.0541V110.28H45.2461C44.9048 110.28 44.6488 110.392 44.4781 110.616C44.3075 110.829 44.2168 111.048 44.2061 111.272V115.8H45.9501V117H41.6781V115.8H42.8461ZM53.6308 117C53.0868 117 52.6708 116.824 52.3828 116.472C52.0948 116.12 51.9508 115.656 51.9508 115.08V110.2H50.4308V109H51.9508V107.08H53.3108V109H55.6468V110.2H53.3108V115.16C53.3108 115.395 53.3694 115.56 53.4868 115.656C53.6041 115.752 53.7854 115.8 54.0308 115.8H55.6468V117H53.6308ZM64.6554 114.44C64.6554 115.336 64.4314 115.987 63.9834 116.392C63.546 116.797 62.8634 117 61.9354 117H61.4074C60.4794 117 59.7914 116.797 59.3434 116.392C58.906 115.987 58.6874 115.336 58.6874 114.44V111.56C58.6874 110.664 58.906 110.013 59.3434 109.608C59.7914 109.203 60.4794 109 61.4074 109H61.9354C62.8634 109 63.546 109.203 63.9834 109.608C64.4314 110.013 64.6554 110.664 64.6554 111.56V114.44ZM63.2954 111.24C63.2954 110.909 63.194 110.653 62.9914 110.472C62.7887 110.291 62.49 110.2 62.0954 110.2H61.2474C60.8527 110.2 60.554 110.291 60.3514 110.472C60.1487 110.653 60.0474 110.909 60.0474 111.24V114.76C60.0474 115.091 60.1487 115.347 60.3514 115.528C60.554 115.709 60.8527 115.8 61.2474 115.8H62.0954C62.49 115.8 62.7887 115.709 62.9914 115.528C63.194 115.347 63.2954 115.091 63.2954 114.76V111.24Z" fill="white"/>
<path d="M30.6904 43.3291V56.6709H15.1035V43.3291H30.6904ZM46.2881 29.9766V43.3291H30.7012V29.9766H46.2881ZM61.8857 29.9766V56.6709H46.2988V29.9766H61.8857ZM30.6904 54.9766V81.6709H15.1035V54.9766H30.6904ZM46.2881 54.9766V68.3291H30.7012V54.9766H46.2881ZM61.8857 54.9766V81.6709H46.2988V54.9766H61.8857Z" fill="white"/>
<defs>
<filter id="filter0_f_712_930" x="12.8762" y="103.8" width="53.7792" height="15.2" filterUnits="userSpaceOnUse" color-interpolation-filters="sRGB">
<feFlood flood-opacity="0" result="BackgroundImageFix"/>
<feBlend mode="normal" in="SourceGraphic" in2="BackgroundImageFix" result="shape"/>
<feGaussianBlur stdDeviation="1" result="effect1_foregroundBlur_712_930"/>
</filter>
</defs>
</svg>
