<svg width="139" height="88" viewBox="0 0 139 88" fill="none" xmlns="http://www.w3.org/2000/svg">
<path d="M10.2894 86.8994C9.67813 86.7364 8.92425 86.6141 8.61863 86.5938C8.29263 86.5938 8.04813 86.4919 8.04813 86.3696C8.04813 86.2678 7.96663 86.2066 7.88513 86.2678C7.78325 86.3289 7.35538 86.064 6.9275 85.6769C6.49963 85.2898 5.96988 84.9638 5.74575 84.9638C5.27713 84.9638 3.28038 82.9263 2.26163 81.3778C1.32438 79.9719 0.835375 78.9735 0.387125 77.5269C0.020375 76.3655 0 75.1226 0 48.085C0 21.6383 0.020375 19.7638 0.36675 18.2356C0.815 16.1981 1.42625 14.4663 2.13938 13.1419C2.445 12.5918 2.81175 11.7971 2.934 11.3693C3.07663 10.9618 3.30075 10.5746 3.46375 10.5135C3.62675 10.4524 3.76938 10.2283 3.76938 10.0041C3.76938 9.78 3.93238 9.47438 4.13613 9.33175C4.36025 9.18913 4.74738 8.70013 5.03263 8.25188C5.31788 7.80363 6.25513 6.846 7.13125 6.1125C7.987 5.379 8.84275 4.6455 9.02613 4.4825C9.51513 4.01388 11.3693 2.8525 11.6341 2.8525C11.7768 2.8525 11.9398 2.70988 12.0009 2.5265C12.0824 2.34313 12.2658 2.24125 12.4288 2.32275C12.5918 2.38388 12.7344 2.34313 12.7344 2.24125C12.7344 2.07825 13.2845 1.793 14.67 1.2225C14.8941 1.12063 15.4443 0.998375 15.8925 0.93725C16.3408 0.876125 17.5836 0.652 18.6431 0.427875C20.5584 0 21.027 0 69.0713 0C110.616 0.020375 117.788 0.061125 119.194 0.305625C120.09 0.468625 121.415 0.713125 122.148 0.815C122.882 0.93725 124.125 1.32438 124.899 1.69113C127.548 2.89325 131.154 5.6235 132.764 7.64063C133.253 8.25188 133.721 8.76125 133.803 8.76125C133.884 8.76125 134.149 9.14838 134.394 9.63738C134.638 10.106 134.944 10.6358 135.107 10.7988C135.657 11.4304 137.226 14.8534 137.776 16.626C138.346 18.4394 138.346 18.4394 138.407 36.675C138.448 49.4501 138.407 55.3793 138.244 56.4999C137.572 61.1454 134.495 66.7689 130.909 69.8659C128.2 72.209 124.125 74.2873 120.722 75.1023C119.296 75.4486 116.647 75.4894 76.7119 75.5913C34.23 75.6931 34.23 75.6931 33.0075 76.5081C32.3351 76.9564 31.6016 77.4454 31.3775 77.588C29.8901 78.5253 29.6456 78.7086 29.6456 78.8309C29.6456 78.9124 29.34 79.0754 28.9529 79.218C28.5861 79.3606 27.873 79.8089 27.384 80.2368C26.895 80.6443 25.8966 81.3981 25.1631 81.8871C24.4296 82.3965 23.2071 83.293 22.4329 83.8839C21.6586 84.4748 20.9048 84.9638 20.7621 84.9638C20.6195 84.9638 20.1713 85.1675 19.8045 85.4324C18.419 86.3289 17.7059 86.6753 17.115 86.716C16.789 86.7568 16.0963 86.8586 15.5869 86.9809C14.3236 87.2661 11.6341 87.2254 10.2894 86.8994ZM54.3605 50.8153C56.3573 50.3466 58.5578 49.063 60.0655 47.433C61.0231 46.4143 61.7566 45.151 62.429 43.4191C62.9384 42.0744 62.9384 42.0744 62.9995 34.0874C63.0606 24.5926 63.3459 25.3669 59.9229 25.5095C58.5578 25.5503 57.702 25.6725 57.4779 25.8559C57.1926 26.1004 57.1519 26.9561 57.1519 33.5984C57.1519 39.6294 57.0908 41.1575 56.8666 41.565C56.7036 41.8503 56.398 42.4411 56.1739 42.9098C55.1755 44.988 52.1193 45.8845 49.6539 44.825C48.9611 44.5194 48.4925 44.1119 47.9628 43.3376C46.5773 41.3613 46.5569 41.1575 46.5569 33.1298C46.5569 27.5878 46.4958 25.8763 46.292 25.7133C45.9049 25.3873 41.6058 25.5095 41.1983 25.8559C40.8926 26.1004 40.8519 26.8746 40.8519 33.2316C40.8519 39.7313 41.0556 43.1746 41.4428 43.7044C41.5243 43.8266 41.728 44.2341 41.8706 44.6213C42.0133 45.0084 42.543 45.9253 43.0116 46.6588C43.7451 47.7998 44.173 48.1869 45.7419 49.1853C48.6963 51.0394 51.2431 51.508 54.3605 50.8153ZM108.456 50.8153C109.312 50.6523 110.657 50.1836 111.431 49.7965C112.979 49.0019 113.387 49.0019 113.244 49.7965C113.041 50.7745 113.428 50.9375 115.873 50.9375C118.44 50.9375 118.888 50.7949 118.786 49.9799C118.746 49.6539 118.705 46.2105 118.684 42.2985C118.664 35.2284 118.644 35.1876 118.134 33.741C117.849 32.9464 117.401 31.8461 117.116 31.3164C116.647 30.3791 114.772 28.3213 113.489 27.3433C112.429 26.5283 110.331 25.6114 109.292 25.5095C108.741 25.4688 108.293 25.3261 108.293 25.2243C108.293 25.0001 103.138 25.0613 102.975 25.3058C102.914 25.4076 102.446 25.5299 101.957 25.591C101.101 25.6929 99.4504 26.5283 97.9019 27.6285C97.1073 28.199 95.681 29.6864 95.8033 29.829C95.844 29.8698 95.5995 30.1754 95.2735 30.5014C94.54 31.2553 93.3379 34.23 92.9915 36.1656C92.8489 36.9806 92.8081 38.142 92.8896 38.9774C93.1138 41.4224 94.5808 45.1103 95.8033 46.3531C96.1293 46.6995 96.5571 47.2293 96.7609 47.5349C96.9443 47.8405 97.3518 48.2073 97.6574 48.3295C97.963 48.4721 98.3501 48.6759 98.5131 48.8185C99.6541 49.6946 101.814 50.5504 104.116 51.019C105.054 51.2024 106.989 51.1209 108.456 50.8153ZM27.5674 50.693C27.7508 50.5096 27.8119 48.6555 27.8119 43.5618C27.8119 37.164 27.8323 36.6139 28.2194 35.5951C28.6473 34.4541 29.4011 33.4965 30.3995 32.8649C30.7051 32.6611 31.0515 32.3963 31.133 32.2536C31.2145 32.111 31.459 31.9888 31.6831 31.9888C31.8869 31.9888 32.0906 31.8869 32.1314 31.785C32.1721 31.6628 33.2316 31.4998 34.5356 31.4183C36.8788 31.2756 36.8788 31.2756 36.8788 28.4231C36.8788 25.5706 36.8788 25.5706 34.4338 25.5706C31.7239 25.5706 30.481 25.8559 28.7899 26.9154C28.2398 27.2414 27.8119 27.4248 27.7915 27.3433C27.7711 27.2618 27.7711 26.9765 27.7915 26.6913C27.8323 25.7133 27.5878 25.591 25.1835 25.5095C21.5364 25.3669 21.9031 23.9406 21.9031 38.2031C21.9031 48.9204 21.9439 50.3263 22.2291 50.6115C22.4736 50.8764 23.0238 50.9375 24.939 50.9375C26.5283 50.9375 27.4044 50.856 27.5674 50.693ZM72.372 50.7745C72.5554 50.6523 72.6369 48.6555 72.698 43.0931C72.7795 36.6954 72.861 34.5356 73.0444 34.5356C73.0648 34.5356 73.1055 34.3726 73.1463 34.1689C73.2685 33.5576 73.8186 32.4981 74.2058 32.1518C74.4095 31.9684 75.306 31.5813 76.1821 31.2756C77.7918 30.7255 77.7918 30.7255 79.1976 31.0923C80.4405 31.4183 80.7258 31.6016 81.6834 32.6C82.5595 33.5169 82.8244 33.9448 83.0078 34.8005C83.1504 35.4933 83.2319 38.5291 83.2319 43.1543C83.2319 48.5536 83.293 50.5096 83.4764 50.693C83.8431 51.0598 88.4071 51.019 88.7128 50.6523C89.0999 50.1836 88.9165 34.067 88.509 32.6611C87.5718 29.5234 84.1284 25.9578 81.6426 25.5503C81.174 25.4688 80.7869 25.3465 80.7869 25.2446C80.7869 25.1631 79.5033 25.0816 77.9548 25.102C75.8154 25.1224 75.0819 25.1835 75.0004 25.3873C74.9393 25.5299 74.6336 25.6318 74.2873 25.6318C72.7388 25.591 69.2954 28.6676 68.0729 31.2145C66.8708 33.7003 66.83 34.1485 66.83 42.6449C66.83 50.041 66.8504 50.367 67.2171 50.6523C67.6654 50.9579 71.9034 51.0598 72.372 50.7745Z" fill="white"/>
<path d="M104.014 45.1103C101.019 43.9693 99.2466 42.0133 98.7373 39.2626C98.3094 36.9806 99.2263 34.2708 100.856 32.9871C101.345 32.6 101.773 32.1721 101.814 32.0091C101.875 31.7239 102.935 31.3775 104.911 30.97C105.706 30.807 106.195 30.8274 107.132 31.0719C107.784 31.2349 108.497 31.3775 108.68 31.3775C109.312 31.3775 111.411 33.3743 112.083 34.5968C113.387 37.001 113.387 38.9163 112.103 41.4631C111.411 42.8486 110.534 43.7248 109.027 44.5398C108.151 45.0288 107.723 45.1306 106.154 45.1714C105.155 45.1918 104.177 45.1714 104.014 45.1103Z" fill="white"/>
</svg>
