<svg width="188" height="188" viewBox="0 0 188 188" fill="none" xmlns="http://www.w3.org/2000/svg">
<path d="M69.3168 109.832C65.1212 109.404 61.5381 107.658 58.3837 104.504C56.1787 102.299 54.8312 100.155 53.6981 97.0312C52.9937 95.01 52.8712 94.3056 52.8712 90.9062C52.8712 87.5375 52.9631 86.8025 53.6675 84.8425C54.8312 81.6268 56.2093 79.5137 58.7206 77.125C60.2825 75.6243 61.6606 74.675 63.4675 73.7868C66.53 72.3475 68.3981 71.9187 71.92 71.9187C80.1275 71.9187 87.4162 77.1556 89.9581 84.9343C91.0606 88.3643 91.1218 93.1112 90.1112 96.4187C89.1006 99.665 87.3856 102.421 84.8743 104.779C80.6175 108.791 75.4725 110.445 69.3168 109.832Z" fill="white"/>
<path d="M112.1 109.986C107.445 109.434 103.77 107.689 100.585 104.534C97.2163 101.166 95.6238 97.9194 94.9194 92.9887C93.9394 85.8837 98.0432 77.8294 104.474 74.2769C113.509 69.285 125.024 72.3475 130.261 81.1675C133.507 86.6187 133.752 93.6319 130.904 99.4812C129.403 102.513 125.453 106.525 122.482 107.964C119.511 109.434 114.887 110.322 112.1 109.986Z" fill="white"/>
<path d="M67.4793 67.5087C63.1918 66.6206 58.445 63.3437 55.8725 59.4237C55.2293 58.4744 54.3106 56.5756 53.8512 55.1668C48.645 40.0993 62.5487 25.92 77.7693 30.7281C86.7731 33.5762 92.3775 43.0393 90.54 52.3493C89.1925 59.2706 84.4456 64.7219 77.8 67.0187C75.35 67.8456 70.2968 68.1212 67.4793 67.5087Z" fill="white"/>
<path d="M109.221 67.4475C103.801 66.1306 98.8393 61.9962 96.5118 56.8512C93.1737 49.4706 94.7662 40.865 100.524 35.23C103.341 32.4737 105.975 31.065 110.109 30.085C112.651 29.4725 114.672 29.4419 117 29.9319C122.757 31.2181 126.8 33.8519 129.832 38.415C131.761 41.2937 132.619 43.9581 132.833 47.725C133.017 51.3387 132.466 54.2175 130.904 57.4637C129.342 60.7406 125.759 64.3237 122.512 65.8856C118.439 67.8456 113.325 68.4275 109.221 67.4475Z" fill="white"/>
<path d="M37.2218 161.803C36.8849 161.742 34.5268 161.466 32.0156 161.191C29.4737 160.915 26.1662 160.394 24.6656 159.996L21.9093 159.292L21.8174 153.565C21.7562 149.002 21.8174 147.869 22.1543 147.869C22.3687 147.869 24.2062 148.42 26.1968 149.094C34.6493 151.942 44.7862 152.861 46.6849 150.931C48.0937 149.522 46.3174 148.726 38.5999 147.409C31.5256 146.184 26.5949 144.469 23.8693 142.326C22.0012 140.856 20.1943 136.66 21.1437 136.078C21.3274 135.986 21.4499 135.68 21.4499 135.435C21.4499 134.394 23.1649 131.546 24.5737 130.229C27.2381 127.748 32.4749 125.757 38.6918 124.931C41.6931 124.502 51.6462 124.502 55.2906 124.9C56.8218 125.084 59.0268 125.421 60.2212 125.666C62.3343 126.125 62.4262 126.186 62.6099 127.136C62.7937 128.146 62.7937 136.537 62.6099 136.874C62.5487 136.997 61.5993 136.752 60.5274 136.354C55.2906 134.455 44.6024 133.383 42.2137 134.516C40.8049 135.19 40.5293 135.864 41.3256 136.629C41.7543 137.089 43.5918 137.609 48.1549 138.589C55.3824 140.121 58.3531 141.039 61.6606 142.724C67.1424 145.572 68.3674 149.553 65.2131 154.3C63.8349 156.321 61.3849 158.159 58.6593 159.169C56.2399 160.088 52.5037 161.007 50.5437 161.221C49.6249 161.313 48.6449 161.466 48.3999 161.558C47.8487 161.742 38.1099 161.956 37.2218 161.803Z" fill="white"/>
<path d="M66.7749 161.099C66.7749 160.731 83.8024 126.37 84.2312 125.911C84.4762 125.604 87.1405 125.512 95.5624 125.512H106.587L107.782 128.054C109.344 131.362 110.783 134.363 117.643 148.757C120.828 155.402 123.431 160.946 123.431 161.099C123.431 161.221 119.266 161.344 114.152 161.344H104.872L104.015 159.598C102.637 156.719 100.585 154.116 98.3187 152.309C96.2974 150.656 91.9793 148.175 91.1524 148.175C90.938 148.175 89.6518 150.962 88.1512 154.698L85.5174 161.191L76.1462 161.282C71.0012 161.313 66.7749 161.221 66.7749 161.099ZM99.2374 146.031C99.2374 145.602 96.2055 135.864 96.0218 135.68C95.9299 135.588 95.838 135.588 95.7768 135.649C95.5624 135.894 91.5812 145.878 91.5812 146.123C91.5812 146.246 93.2962 146.337 95.4093 146.337C97.7674 146.337 99.2374 146.215 99.2374 146.031Z" fill="white"/>
<path d="M133.17 149.645L133.078 137.916L125.33 137.824L117.612 137.762L117.674 131.546L117.766 125.359L140.979 125.267L164.162 125.206V131.484V137.762H156.384C148.881 137.762 148.574 137.793 148.391 138.375C148.299 138.712 148.237 143.979 148.299 150.074L148.391 161.191L140.826 161.282L133.231 161.344L133.17 149.645Z" fill="white"/>
</svg>
